<?xml version="1.0" encoding="utf-8"?>
<!-- Generator: Adobe Illustrator 15.0.0, SVG Export Plug-In  -->
<!DOCTYPE svg PUBLIC "-//W3C//DTD SVG 1.1//EN" "http://www.w3.org/Graphics/SVG/1.1/DTD/svg11.dtd" [
	<!ENTITY ns_flows "http://ns.adobe.com/Flows/1.0/">
]>
<svg version="1.1"
	 xmlns="http://www.w3.org/2000/svg" xmlns:xlink="http://www.w3.org/1999/xlink" xmlns:a="http://ns.adobe.com/AdobeSVGViewerExtensions/3.0/"
	 x="0px" y="0px" width="226px" height="124px" viewBox="0 0 226 124" enable-background="new 0 0 226 124" xml:space="preserve">
<defs>
</defs>
<linearGradient id="SVGID_1_" gradientUnits="userSpaceOnUse" x1="151.667" y1="437.9907" x2="225.2061" y2="437.9907" gradientTransform="matrix(1 0 0 1 -151.667 -387.5918)">
	<stop  offset="0.4124" style="stop-color:#000000"/>
	<stop  offset="1" style="stop-color:#919396"/>
</linearGradient>
<path fill="url(#SVGID_1_)" stroke="#000000" stroke-width="0.2835" stroke-linecap="round" stroke-linejoin="round" d="
	M65.353,74.3c-5.616,4.948-12.978,7.96-21.034,7.96c-17.568,0-31.861-14.293-31.861-31.861c0-17.567,14.293-31.859,31.861-31.859
	c8.056,0,15.417,3.011,21.034,7.959c2.241-3.469,4.951-6.603,8.045-9.314C65.621,10.367,55.448,6.223,44.319,6.223
	c-24.359,0-44.177,19.816-44.177,44.176c0,24.36,19.818,44.178,44.177,44.178c11.129,0,21.302-4.146,29.079-10.962
	C70.304,80.902,67.593,77.769,65.353,74.3z"/>
<linearGradient id="SVGID_2_" gradientUnits="userSpaceOnUse" x1="228.0313" y1="437.4243" x2="301.2861" y2="437.4243" gradientTransform="matrix(1 0 0 1 -151.667 -387.5918)">
	<stop  offset="0.4124" style="stop-color:#0072BC"/>
	<stop  offset="1" style="stop-color:#C7EAFB"/>
</linearGradient>
<path fill="url(#SVGID_2_)" stroke="#000000" stroke-width="0.2835" d="M141.575,73.733c-5.616,4.948-12.978,7.96-21.034,7.96
	c-17.568,0-31.861-14.293-31.861-31.861c0-17.567,14.293-31.86,31.861-31.86c8.056,0,15.417,3.012,21.034,7.96
	c2.242-3.469,4.951-6.603,8.044-9.314c-4.734-4.15-10.362-7.303-16.549-9.141V0.142h-8.509v5.697
	c-1.324-0.12-2.665-0.184-4.02-0.184c-1.362,0-2.707,0.071-4.037,0.192V0.142h-8.509V7.48c-18.266,5.421-31.631,22.35-31.631,42.352
	s13.366,36.932,31.631,42.353v7.339h8.509v-5.706c1.331,0.121,2.675,0.192,4.037,0.192c1.355,0,2.695-0.063,4.02-0.184v5.697h8.509
	v-7.336c6.188-1.837,11.815-4.989,16.549-9.14C146.525,80.336,143.816,77.202,141.575,73.733z"/>
<linearGradient id="SVGID_3_" gradientUnits="userSpaceOnUse" x1="308.3828" y1="437.7427" x2="335.9121" y2="437.7427" gradientTransform="matrix(1 0 0 1 -151.667 -387.5918)">
	<stop  offset="0.4124" style="stop-color:#000000"/>
	<stop  offset="1" style="stop-color:#919396"/>
</linearGradient>
<polygon fill="url(#SVGID_3_)" stroke="#000000" stroke-width="0.2835" stroke-linecap="round" stroke-linejoin="round" points="
	156.857,25.146 184.104,25.146 184.104,34.38 166.273,34.38 166.273,45.414 178.604,45.414 178.604,54.647 166.273,54.647 
	166.273,65.83 184.104,65.83 184.104,75.155 156.857,75.155 "/>
<linearGradient id="SVGID_4_" gradientUnits="userSpaceOnUse" x1="333.0547" y1="437.7427" x2="377.7715" y2="437.7427" gradientTransform="matrix(1 0 0 1 -151.667 -387.5918)">
	<stop  offset="0.4124" style="stop-color:#000000"/>
	<stop  offset="1" style="stop-color:#919396"/>
</linearGradient>
<polygon fill="url(#SVGID_4_)" stroke="#000000" stroke-width="0.2835" stroke-linecap="round" stroke-linejoin="round" points="
	182.484,25.146 193.275,25.146 203.768,41.199 214.285,25.146 225.086,25.146 209.162,49.453 225.963,75.155 215.17,75.155 
	203.762,57.701 192.33,75.155 181.529,75.155 198.365,49.447 "/>
<linearGradient id="SVGID_5_" gradientUnits="userSpaceOnUse" x1="103.2178" y1="24.8447" x2="72.6949" y2="24.8452" gradientTransform="matrix(1 0 0 1 -14.8618 25.1855)">
	<stop  offset="0" style="stop-color:#FFFFFF"/>
	<stop  offset="1" style="stop-color:#000000"/>
</linearGradient>
<rect x="58.812" y="45.414" fill="url(#SVGID_5_)" stroke="#000000" stroke-width="0.2835" stroke-linecap="round" stroke-linejoin="round" width="11.338" height="9.233"/>
<linearGradient id="SVGID_6_" gradientUnits="userSpaceOnUse" x1="15.8008" y1="94.1704" x2="24.459" y2="94.1704" gradientTransform="matrix(1 0 0 1 -14.8618 25.1855)">
	<stop  offset="0" style="stop-color:#000000"/>
	<stop  offset="1" style="stop-color:#939598"/>
</linearGradient>
<path fill="url(#SVGID_6_)" d="M7.728,117.844c-0.021-0.292-0.091-0.555-0.209-0.789s-0.274-0.435-0.467-0.6
	c-0.193-0.166-0.42-0.293-0.681-0.381c-0.26-0.088-0.538-0.132-0.834-0.132c-0.421,0-0.799,0.074-1.135,0.222
	c-0.335,0.148-0.622,0.368-0.861,0.658c-0.238,0.29-0.421,0.648-0.548,1.073c-0.127,0.426-0.19,0.913-0.19,1.464
	c0,0.55,0.064,1.038,0.193,1.463c0.129,0.426,0.31,0.783,0.544,1.074c0.234,0.289,0.518,0.511,0.851,0.664
	c0.333,0.152,0.706,0.229,1.119,0.229c0.313,0,0.601-0.044,0.86-0.133c0.26-0.088,0.487-0.219,0.681-0.393s0.348-0.387,0.464-0.639
	c0.116-0.251,0.189-0.543,0.219-0.873h1.863c-0.052,0.584-0.188,1.104-0.41,1.557c-0.221,0.453-0.511,0.836-0.87,1.147
	s-0.775,0.549-1.248,0.712s-0.986,0.245-1.541,0.245c-0.705,0-1.34-0.119-1.905-0.357s-1.047-0.577-1.444-1.016
	s-0.704-0.969-0.918-1.593c-0.215-0.623-0.322-1.318-0.322-2.088s0.108-1.466,0.326-2.089c0.217-0.623,0.525-1.155,0.925-1.596
	c0.4-0.44,0.882-0.78,1.447-1.019c0.565-0.238,1.196-0.357,1.893-0.357c0.528,0,1.027,0.084,1.495,0.254
	c0.469,0.17,0.885,0.41,1.248,0.719c0.363,0.31,0.662,0.683,0.896,1.119c0.234,0.436,0.377,0.921,0.429,1.453H7.728z"/>
<linearGradient id="SVGID_7_" gradientUnits="userSpaceOnUse" x1="26.4033" y1="94.1777" x2="34.8164" y2="94.1777" gradientTransform="matrix(1 0 0 1 -14.8618 25.1855)">
	<stop  offset="0" style="stop-color:#000000"/>
	<stop  offset="1" style="stop-color:#939598"/>
</linearGradient>
<path fill="url(#SVGID_7_)" d="M13.366,116.069h2.618c0.563,0,0.979,0.102,1.25,0.306c0.271,0.204,0.406,0.523,0.406,0.957
	c0,0.241-0.035,0.445-0.104,0.613s-0.177,0.303-0.325,0.406c-0.148,0.103-0.34,0.177-0.574,0.223
	c-0.234,0.045-0.515,0.067-0.841,0.067h-2.431V116.069 M18.904,121.361c-0.262-0.688-0.602-1.189-1.019-1.508
	c0.507-0.229,0.904-0.556,1.192-0.983s0.432-0.94,0.432-1.538c0-0.201-0.021-0.404-0.062-0.608s-0.101-0.401-0.181-0.59
	c-0.08-0.189-0.179-0.368-0.299-0.538c-0.121-0.17-0.26-0.324-0.419-0.461c-0.181-0.155-0.371-0.276-0.571-0.365
	c-0.2-0.088-0.408-0.154-0.625-0.199c-0.217-0.045-0.444-0.073-0.68-0.084s-0.485-0.016-0.748-0.016h-4.384v9.785h1.824v-3.932h1.96
	c0.202,0,0.393,0.032,0.574,0.097s0.345,0.152,0.493,0.265c0.148,0.111,0.278,0.244,0.39,0.399c0.112,0.154,0.202,0.324,0.271,0.509
	l0.935,2.662h1.966L18.904,121.361z"/>
<linearGradient id="SVGID_8_" gradientUnits="userSpaceOnUse" x1="35.3184" y1="94.1777" x2="44.8979" y2="94.1777" gradientTransform="matrix(1 0 0 1 -14.8618 25.1855)">
	<stop  offset="0" style="stop-color:#000000"/>
	<stop  offset="1" style="stop-color:#939598"/>
</linearGradient>
<polygon fill="url(#SVGID_8_)" points="30.036,114.471 26.162,120.144 26.162,124.256 24.337,124.256 24.337,120.144 
	20.457,114.471 22.667,114.471 25.252,118.436 27.825,114.471 "/>
<linearGradient id="SVGID_9_" gradientUnits="userSpaceOnUse" x1="45.9697" y1="94.1777" x2="53.5645" y2="94.1777" gradientTransform="matrix(1 0 0 1 -14.8618 25.1855)">
	<stop  offset="0" style="stop-color:#000000"/>
	<stop  offset="1" style="stop-color:#939598"/>
</linearGradient>
<path fill="url(#SVGID_9_)" d="M32.933,116.152h2.005c0.253,0,0.495,0.017,0.725,0.049s0.432,0.097,0.606,0.193
	c0.174,0.097,0.313,0.231,0.416,0.403s0.155,0.397,0.155,0.677c0,0.232-0.035,0.436-0.104,0.612s-0.177,0.324-0.325,0.444
	c-0.148,0.121-0.341,0.212-0.577,0.274s-0.522,0.094-0.857,0.094h-2.043V116.152 M31.108,124.256h1.825v-3.681h2.011
	c1.247,0,2.185-0.261,2.814-0.783c0.63-0.522,0.945-1.304,0.945-2.344c0-0.396-0.048-0.743-0.145-1.044s-0.231-0.563-0.403-0.783
	c-0.172-0.222-0.377-0.405-0.616-0.551c-0.238-0.146-0.5-0.265-0.786-0.355c-0.286-0.09-0.589-0.153-0.909-0.189
	c-0.32-0.037-0.648-0.055-0.983-0.055h-3.752V124.256z"/>
<linearGradient id="SVGID_10_" gradientUnits="userSpaceOnUse" x1="54.6216" y1="94.1777" x2="62.5254" y2="94.1777" gradientTransform="matrix(1 0 0 1 -14.8618 25.1855)">
	<stop  offset="0" style="stop-color:#000000"/>
	<stop  offset="1" style="stop-color:#939598"/>
</linearGradient>
<polygon fill="url(#SVGID_10_)" points="47.664,116.152 44.621,116.152 44.621,124.256 42.79,124.256 42.79,116.152 39.76,116.152 
	39.76,114.471 47.664,114.471 "/>
<linearGradient id="SVGID_11_" gradientUnits="userSpaceOnUse" x1="63.6245" y1="94.1763" x2="73.0371" y2="94.1763" gradientTransform="matrix(1 0 0 1 -14.8618 25.1855)">
	<stop  offset="0" style="stop-color:#000000"/>
	<stop  offset="1" style="stop-color:#939598"/>
</linearGradient>
<path fill="url(#SVGID_11_)" d="M52.325,122.55c-0.346-0.157-0.645-0.382-0.896-0.677s-0.448-0.653-0.59-1.076
	c-0.142-0.424-0.212-0.904-0.212-1.441c0-0.533,0.071-1.012,0.212-1.435c0.142-0.423,0.341-0.781,0.597-1.073
	s0.559-0.516,0.909-0.67c0.35-0.155,0.731-0.232,1.144-0.232c0.404,0,0.779,0.076,1.125,0.229c0.346,0.152,0.645,0.374,0.896,0.664
	s0.448,0.646,0.59,1.07c0.142,0.424,0.213,0.906,0.213,1.447c0,0.537-0.07,1.018-0.209,1.441c-0.14,0.423-0.335,0.781-0.587,1.076
	s-0.552,0.52-0.902,0.677s-0.734,0.235-1.151,0.235C53.05,122.785,52.67,122.707,52.325,122.55 M51.586,114.672
	c-0.576,0.238-1.073,0.578-1.492,1.019c-0.419,0.44-0.746,0.972-0.98,1.593c-0.234,0.621-0.352,1.312-0.352,2.072
	c0,0.752,0.115,1.438,0.345,2.06s0.553,1.153,0.97,1.596c0.417,0.442,0.913,0.786,1.489,1.031c0.576,0.245,1.21,0.367,1.902,0.367
	c0.692,0,1.326-0.123,1.901-0.37c0.576-0.247,1.072-0.593,1.489-1.038c0.417-0.444,0.74-0.977,0.97-1.596
	c0.23-0.618,0.345-1.302,0.345-2.05c0-0.756-0.117-1.445-0.352-2.066s-0.56-1.151-0.977-1.592s-0.914-0.781-1.489-1.022
	c-0.576-0.24-1.206-0.36-1.889-0.36C52.79,114.314,52.162,114.434,51.586,114.672z"/>
<linearGradient id="SVGID_12_" gradientUnits="userSpaceOnUse" x1="74.1035" y1="95.52" x2="78.0747" y2="95.52" gradientTransform="matrix(1 0 0 1 -14.8618 25.1855)">
	<stop  offset="0" style="stop-color:#000000"/>
	<stop  offset="1" style="stop-color:#939598"/>
</linearGradient>
<rect x="59.242" y="119.861" fill="url(#SVGID_12_)" width="3.971" height="1.688"/>
<linearGradient id="SVGID_13_" gradientUnits="userSpaceOnUse" x1="79.0918" y1="94.1704" x2="87.75" y2="94.1704" gradientTransform="matrix(1 0 0 1 -14.8618 25.1855)">
	<stop  offset="0" style="stop-color:#000000"/>
	<stop  offset="1" style="stop-color:#939598"/>
</linearGradient>
<path fill="url(#SVGID_13_)" d="M71.019,117.844c-0.021-0.292-0.091-0.555-0.209-0.789s-0.274-0.435-0.468-0.6
	c-0.193-0.166-0.42-0.293-0.68-0.381c-0.26-0.088-0.538-0.132-0.834-0.132c-0.421,0-0.8,0.074-1.135,0.222
	c-0.335,0.148-0.622,0.368-0.861,0.658c-0.238,0.29-0.421,0.648-0.548,1.073c-0.127,0.426-0.19,0.913-0.19,1.464
	c0,0.55,0.064,1.038,0.193,1.463c0.129,0.426,0.31,0.783,0.544,1.074c0.234,0.289,0.518,0.511,0.851,0.664
	c0.333,0.152,0.706,0.229,1.119,0.229c0.313,0,0.601-0.044,0.86-0.133c0.26-0.088,0.487-0.219,0.68-0.393s0.348-0.387,0.464-0.639
	c0.116-0.251,0.189-0.543,0.219-0.873h1.863c-0.052,0.584-0.188,1.104-0.41,1.557s-0.511,0.836-0.87,1.147s-0.775,0.549-1.248,0.712
	s-0.986,0.245-1.541,0.245c-0.705,0-1.34-0.119-1.905-0.357c-0.565-0.238-1.047-0.577-1.444-1.016s-0.704-0.969-0.918-1.593
	c-0.215-0.623-0.322-1.318-0.322-2.088s0.108-1.466,0.325-2.089c0.217-0.623,0.525-1.155,0.925-1.596s0.882-0.78,1.447-1.019
	c0.565-0.238,1.196-0.357,1.892-0.357c0.529,0,1.027,0.084,1.496,0.254c0.469,0.17,0.884,0.41,1.248,0.719
	c0.363,0.31,0.662,0.683,0.896,1.119c0.234,0.436,0.377,0.921,0.429,1.453H71.019z"/>
<linearGradient id="SVGID_14_" gradientUnits="userSpaceOnUse" x1="89.6787" y1="94.2554" x2="97.5244" y2="94.2554" gradientTransform="matrix(1 0 0 1 -14.8618 25.1855)">
	<stop  offset="0" style="stop-color:#000000"/>
	<stop  offset="1" style="stop-color:#939598"/>
</linearGradient>
<path fill="url(#SVGID_14_)" d="M78.736,124.411c-0.615,0-1.139-0.062-1.573-0.184s-0.796-0.289-1.086-0.5
	c-0.29-0.21-0.519-0.457-0.687-0.741c-0.168-0.283-0.294-0.585-0.38-0.905s-0.14-0.651-0.161-0.993s-0.032-0.678-0.032-1.009v-5.608
	h1.824v5.589c0,0.555,0.046,1.007,0.139,1.357s0.228,0.623,0.406,0.818c0.178,0.196,0.397,0.329,0.657,0.399
	c0.26,0.071,0.558,0.106,0.893,0.106c0.339,0,0.64-0.036,0.902-0.109s0.48-0.207,0.654-0.403c0.174-0.195,0.306-0.467,0.396-0.815
	c0.09-0.348,0.136-0.799,0.136-1.354v-5.589h1.837v5.608c0,0.679-0.059,1.287-0.177,1.824s-0.326,0.992-0.622,1.363
	c-0.297,0.372-0.698,0.655-1.203,0.851S79.514,124.411,78.736,124.411z"/>
<linearGradient id="SVGID_15_" gradientUnits="userSpaceOnUse" x1="99.8594" y1="94.1777" x2="108.2725" y2="94.1777" gradientTransform="matrix(1 0 0 1 -14.8618 25.1855)">
	<stop  offset="0" style="stop-color:#000000"/>
	<stop  offset="1" style="stop-color:#939598"/>
</linearGradient>
<path fill="url(#SVGID_15_)" d="M86.822,116.069h2.618c0.563,0,0.979,0.102,1.25,0.306c0.271,0.204,0.406,0.523,0.406,0.957
	c0,0.241-0.035,0.445-0.104,0.613s-0.177,0.303-0.325,0.406c-0.148,0.103-0.34,0.177-0.574,0.223
	c-0.234,0.045-0.515,0.067-0.841,0.067h-2.431V116.069 M92.36,121.361c-0.262-0.688-0.602-1.189-1.019-1.508
	c0.507-0.229,0.904-0.556,1.192-0.983s0.432-0.94,0.432-1.538c0-0.201-0.021-0.404-0.062-0.608s-0.101-0.401-0.181-0.59
	c-0.08-0.189-0.179-0.368-0.299-0.538c-0.121-0.17-0.26-0.324-0.419-0.461c-0.181-0.155-0.371-0.276-0.571-0.365
	c-0.2-0.088-0.408-0.154-0.625-0.199c-0.217-0.045-0.444-0.073-0.68-0.084s-0.485-0.016-0.748-0.016h-4.384v9.785h1.824v-3.932h1.96
	c0.202,0,0.393,0.032,0.574,0.097s0.345,0.152,0.493,0.265c0.148,0.111,0.278,0.244,0.39,0.399c0.112,0.154,0.202,0.324,0.271,0.509
	l0.935,2.662h1.966L92.36,121.361z"/>
<linearGradient id="SVGID_16_" gradientUnits="userSpaceOnUse" x1="110.0239" y1="94.1777" x2="118.437" y2="94.1777" gradientTransform="matrix(1 0 0 1 -14.8618 25.1855)">
	<stop  offset="0" style="stop-color:#000000"/>
	<stop  offset="1" style="stop-color:#939598"/>
</linearGradient>
<path fill="url(#SVGID_16_)" d="M96.987,116.069h2.618c0.563,0,0.979,0.102,1.25,0.306c0.271,0.204,0.406,0.523,0.406,0.957
	c0,0.241-0.034,0.445-0.103,0.613s-0.177,0.303-0.326,0.406c-0.148,0.103-0.339,0.177-0.573,0.223
	c-0.234,0.045-0.515,0.067-0.842,0.067h-2.43V116.069 M102.524,121.361c-0.262-0.688-0.602-1.189-1.019-1.508
	c0.507-0.229,0.905-0.556,1.193-0.983c0.288-0.428,0.432-0.94,0.432-1.538c0-0.201-0.021-0.404-0.062-0.608s-0.101-0.401-0.181-0.59
	c-0.08-0.189-0.18-0.368-0.3-0.538s-0.26-0.324-0.419-0.461c-0.181-0.155-0.371-0.276-0.57-0.365
	c-0.2-0.088-0.408-0.154-0.625-0.199s-0.444-0.073-0.68-0.084s-0.485-0.016-0.748-0.016h-4.384v9.785h1.825v-3.932h1.96
	c0.202,0,0.393,0.032,0.574,0.097s0.345,0.152,0.493,0.265c0.148,0.111,0.278,0.244,0.39,0.399c0.112,0.154,0.202,0.324,0.271,0.509
	l0.935,2.662h1.966L102.524,121.361z"/>
<linearGradient id="SVGID_17_" gradientUnits="userSpaceOnUse" x1="120.1733" y1="94.1777" x2="127.6519" y2="94.1777" gradientTransform="matrix(1 0 0 1 -14.8618 25.1855)">
	<stop  offset="0" style="stop-color:#000000"/>
	<stop  offset="1" style="stop-color:#939598"/>
</linearGradient>
<polygon fill="url(#SVGID_17_)" points="112.79,124.256 105.312,124.256 105.312,114.471 112.577,114.471 112.577,116.152 
	107.136,116.152 107.136,118.364 112.229,118.364 112.229,120.033 107.136,120.033 107.136,122.574 112.79,122.574 "/>
<linearGradient id="SVGID_18_" gradientUnits="userSpaceOnUse" x1="129.5908" y1="94.1777" x2="137.4365" y2="94.1777" gradientTransform="matrix(1 0 0 1 -14.8618 25.1855)">
	<stop  offset="0" style="stop-color:#000000"/>
	<stop  offset="1" style="stop-color:#939598"/>
</linearGradient>
<polygon fill="url(#SVGID_18_)" points="122.575,124.256 120.854,124.256 116.489,117.713 116.489,124.256 114.729,124.256 
	114.729,114.471 116.457,114.471 120.802,121.026 120.802,114.471 122.575,114.471 "/>
<linearGradient id="SVGID_19_" gradientUnits="userSpaceOnUse" x1="139.334" y1="94.1704" x2="147.9922" y2="94.1704" gradientTransform="matrix(1 0 0 1 -14.8618 25.1855)">
	<stop  offset="0" style="stop-color:#000000"/>
	<stop  offset="1" style="stop-color:#939598"/>
</linearGradient>
<path fill="url(#SVGID_19_)" d="M131.261,117.844c-0.021-0.292-0.092-0.555-0.21-0.789s-0.274-0.435-0.468-0.6
	c-0.193-0.166-0.42-0.293-0.68-0.381s-0.539-0.132-0.835-0.132c-0.421,0-0.8,0.074-1.135,0.222c-0.335,0.148-0.622,0.368-0.86,0.658
	s-0.422,0.648-0.549,1.073c-0.127,0.426-0.189,0.913-0.189,1.464c0,0.55,0.064,1.038,0.193,1.463
	c0.129,0.426,0.311,0.783,0.545,1.074c0.234,0.289,0.518,0.511,0.851,0.664c0.333,0.152,0.706,0.229,1.118,0.229
	c0.314,0,0.602-0.044,0.861-0.133c0.26-0.088,0.486-0.219,0.68-0.393s0.348-0.387,0.465-0.639c0.115-0.251,0.188-0.543,0.219-0.873
	h1.863c-0.052,0.584-0.188,1.104-0.41,1.557c-0.221,0.453-0.511,0.836-0.869,1.147c-0.359,0.312-0.775,0.549-1.248,0.712
	s-0.986,0.245-1.541,0.245c-0.705,0-1.34-0.119-1.904-0.357c-0.566-0.238-1.047-0.577-1.445-1.016s-0.704-0.969-0.918-1.593
	c-0.215-0.623-0.322-1.318-0.322-2.088s0.108-1.466,0.325-2.089c0.217-0.623,0.525-1.155,0.925-1.596s0.882-0.78,1.447-1.019
	c0.566-0.238,1.196-0.357,1.893-0.357c0.529,0,1.027,0.084,1.496,0.254s0.884,0.41,1.247,0.719c0.363,0.31,0.662,0.683,0.896,1.119
	c0.233,0.436,0.377,0.921,0.429,1.453H131.261z"/>
<linearGradient id="SVGID_20_" gradientUnits="userSpaceOnUse" x1="148.6865" y1="94.1777" x2="158.2656" y2="94.1777" gradientTransform="matrix(1 0 0 1 -14.8618 25.1855)">
	<stop  offset="0" style="stop-color:#000000"/>
	<stop  offset="1" style="stop-color:#939598"/>
</linearGradient>
<polygon fill="url(#SVGID_20_)" points="143.404,114.471 139.53,120.144 139.53,124.256 137.705,124.256 137.705,120.144 
	133.825,114.471 136.036,114.471 138.621,118.436 141.193,114.471 "/>
<linearGradient id="SVGID_21_" gradientUnits="userSpaceOnUse" x1="163.1797" y1="94.1777" x2="170.6582" y2="94.1777" gradientTransform="matrix(1 0 0 1 -14.8618 25.1855)">
	<stop  offset="0" style="stop-color:#000000"/>
	<stop  offset="1" style="stop-color:#939598"/>
</linearGradient>
<polygon fill="url(#SVGID_21_)" points="155.797,124.256 148.318,124.256 148.318,114.471 155.584,114.471 155.584,116.152 
	150.143,116.152 150.143,118.364 155.236,118.364 155.236,120.033 150.143,120.033 150.143,122.574 155.797,122.574 "/>
<linearGradient id="SVGID_22_" gradientUnits="userSpaceOnUse" x1="171.332" y1="94.1777" x2="180.957" y2="94.1777" gradientTransform="matrix(1 0 0 1 -14.8618 25.1855)">
	<stop  offset="0" style="stop-color:#000000"/>
	<stop  offset="1" style="stop-color:#939598"/>
</linearGradient>
<polygon fill="url(#SVGID_22_)" points="166.096,124.256 163.857,124.256 161.293,120.582 158.727,124.256 156.471,124.256 
	160.223,119.111 156.83,114.471 159.061,114.471 161.279,117.636 163.51,114.471 165.74,114.471 162.344,119.111 "/>
<linearGradient id="SVGID_23_" gradientUnits="userSpaceOnUse" x1="181.5918" y1="94.1704" x2="190.25" y2="94.1704" gradientTransform="matrix(1 0 0 1 -14.8618 25.1855)">
	<stop  offset="0" style="stop-color:#000000"/>
	<stop  offset="1" style="stop-color:#939598"/>
</linearGradient>
<path fill="url(#SVGID_23_)" d="M173.52,117.844c-0.021-0.292-0.092-0.555-0.209-0.789c-0.119-0.234-0.275-0.435-0.469-0.6
	c-0.193-0.166-0.42-0.293-0.68-0.381s-0.537-0.132-0.834-0.132c-0.422,0-0.801,0.074-1.135,0.222
	c-0.336,0.148-0.623,0.368-0.861,0.658s-0.42,0.648-0.547,1.073c-0.127,0.426-0.191,0.913-0.191,1.464
	c0,0.55,0.064,1.038,0.193,1.463c0.129,0.426,0.311,0.783,0.545,1.074c0.234,0.289,0.518,0.511,0.852,0.664
	c0.332,0.152,0.705,0.229,1.119,0.229c0.313,0,0.6-0.044,0.859-0.133c0.26-0.088,0.486-0.219,0.68-0.393s0.35-0.387,0.465-0.639
	c0.117-0.251,0.189-0.543,0.219-0.873h1.863c-0.051,0.584-0.188,1.104-0.408,1.557c-0.223,0.453-0.512,0.836-0.871,1.147
	s-0.775,0.549-1.248,0.712s-0.986,0.245-1.541,0.245c-0.703,0-1.34-0.119-1.904-0.357s-1.047-0.577-1.443-1.016
	c-0.398-0.438-0.705-0.969-0.92-1.593c-0.215-0.623-0.322-1.318-0.322-2.088s0.109-1.466,0.326-2.089s0.525-1.155,0.926-1.596
	c0.398-0.44,0.881-0.78,1.447-1.019c0.564-0.238,1.195-0.357,1.891-0.357c0.529,0,1.027,0.084,1.496,0.254s0.885,0.41,1.248,0.719
	c0.363,0.31,0.662,0.683,0.896,1.119c0.234,0.436,0.377,0.921,0.428,1.453H173.52z"/>
<linearGradient id="SVGID_24_" gradientUnits="userSpaceOnUse" x1="192.1797" y1="94.1777" x2="200.0254" y2="94.1777" gradientTransform="matrix(1 0 0 1 -14.8618 25.1855)">
	<stop  offset="0" style="stop-color:#000000"/>
	<stop  offset="1" style="stop-color:#939598"/>
</linearGradient>
<polygon fill="url(#SVGID_24_)" points="185.164,124.256 183.326,124.256 183.326,119.924 179.143,119.924 179.143,124.256 
	177.318,124.256 177.318,114.471 179.143,114.471 179.143,118.241 183.326,118.241 183.326,114.471 185.164,114.471 "/>
<linearGradient id="SVGID_25_" gradientUnits="userSpaceOnUse" x1="201.1719" y1="94.1777" x2="210.6563" y2="94.1777" gradientTransform="matrix(1 0 0 1 -14.8618 25.1855)">
	<stop  offset="0" style="stop-color:#000000"/>
	<stop  offset="1" style="stop-color:#939598"/>
</linearGradient>
<path fill="url(#SVGID_25_)" d="M189.811,119.904l1.123-3.101l1.186,3.101H189.811 M191.811,114.471h-1.742l-3.758,9.785h1.934
	l1.02-2.797h3.424l1.07,2.797h2.037L191.811,114.471z"/>
<linearGradient id="SVGID_26_" gradientUnits="userSpaceOnUse" x1="211.7617" y1="94.1777" x2="219.6074" y2="94.1777" gradientTransform="matrix(1 0 0 1 -14.8618 25.1855)">
	<stop  offset="0" style="stop-color:#000000"/>
	<stop  offset="1" style="stop-color:#939598"/>
</linearGradient>
<polygon fill="url(#SVGID_26_)" points="204.746,124.256 203.025,124.256 198.66,117.713 198.66,124.256 196.9,124.256 
	196.9,114.471 198.627,114.471 202.973,121.026 202.973,114.471 204.746,114.471 "/>
<linearGradient id="SVGID_27_" gradientUnits="userSpaceOnUse" x1="221.5195" y1="94.1763" x2="230.7188" y2="94.1763" gradientTransform="matrix(1 0 0 1 -14.8618 25.1855)">
	<stop  offset="0" style="stop-color:#000000"/>
	<stop  offset="1" style="stop-color:#939598"/>
</linearGradient>
<path fill="url(#SVGID_27_)" d="M211.41,124.409c-0.709,0-1.355-0.121-1.941-0.364c-0.584-0.242-1.084-0.584-1.498-1.024
	s-0.736-0.972-0.967-1.593s-0.346-1.312-0.346-2.072c0-0.773,0.115-1.471,0.346-2.092s0.553-1.15,0.967-1.586
	c0.414-0.437,0.91-0.772,1.488-1.009s1.217-0.354,1.912-0.354c0.584,0,1.131,0.084,1.639,0.251c0.506,0.168,0.951,0.405,1.336,0.712
	c0.385,0.308,0.697,0.679,0.936,1.112c0.238,0.435,0.381,0.92,0.43,1.457h-1.877c-0.025-0.301-0.1-0.568-0.223-0.803
	c-0.123-0.233-0.289-0.433-0.5-0.596s-0.461-0.288-0.75-0.374c-0.291-0.086-0.613-0.129-0.971-0.129
	c-0.426,0-0.813,0.075-1.164,0.226c-0.35,0.15-0.65,0.37-0.902,0.661c-0.252,0.289-0.447,0.646-0.586,1.069
	c-0.141,0.424-0.211,0.908-0.211,1.454c0,0.537,0.07,1.018,0.211,1.441c0.139,0.423,0.334,0.781,0.586,1.076s0.553,0.52,0.906,0.677
	c0.352,0.157,0.74,0.235,1.166,0.235c0.611,0,1.133-0.089,1.564-0.268c0.432-0.178,0.795-0.457,1.092-0.835v-1.024h-2.424v-1.684
	h4.229v5.28h-1.404l-0.232-0.702c-0.34,0.283-0.742,0.497-1.209,0.641C212.545,124.338,212.012,124.409,211.41,124.409z"/>
<linearGradient id="SVGID_28_" gradientUnits="userSpaceOnUse" x1="232.8594" y1="94.1777" x2="240.3359" y2="94.1777" gradientTransform="matrix(1 0 0 1 -14.8618 25.1855)">
	<stop  offset="0" style="stop-color:#000000"/>
	<stop  offset="1" style="stop-color:#939598"/>
</linearGradient>
<polygon fill="url(#SVGID_28_)" points="225.475,124.256 217.998,124.256 217.998,114.471 225.264,114.471 225.264,116.152 
	219.822,116.152 219.822,118.364 224.914,118.364 224.914,120.033 219.822,120.033 219.822,122.574 225.475,122.574 "/>
</svg>
